<?xml version="1.0" encoding="UTF-8" standalone="no"?>
<!-- Created with Inkscape (http://www.inkscape.org/) -->

<svg
   version="1.1"
   id="svg2"
   xml:space="preserve"
   width="635.09332"
   height="80.746666"
   viewBox="0 0 635.09332 80.746666"
   sodipodi:docname="Straume_LogoWordmark.eps"
   xmlns:inkscape="http://www.inkscape.org/namespaces/inkscape"
   xmlns:sodipodi="http://sodipodi.sourceforge.net/DTD/sodipodi-0.dtd"
   xmlns="http://www.w3.org/2000/svg"
   xmlns:svg="http://www.w3.org/2000/svg"><defs
     id="defs6" /><sodipodi:namedview
     id="namedview4"
     pagecolor="#ffffff"
     bordercolor="#666666"
     borderopacity="1.0"
     inkscape:pageshadow="2"
     inkscape:pageopacity="0.0"
     inkscape:pagecheckerboard="0" /><g
     id="g8"
     inkscape:groupmode="layer"
     inkscape:label="ink_ext_XXXXXX"
     transform="matrix(1.3333333,0,0,-1.3333333,0,80.746667)"><g
       id="g10"
       transform="scale(0.1)"><path
         d="m 281.055,261.293 -115.559,24.035 c -24.848,4.836 -42.019,12.934 -51.027,24.051 -9.02,11.117 -13.59,23.449 -13.59,36.652 0,13.203 4.109,25.235 12.223,35.75 8.148,10.547 20.097,18.965 35.511,25.02 15.524,6.074 34.492,9.156 56.391,9.156 24.914,0 49.277,-6.324 72.43,-18.801 23.031,-12.429 39.945,-32.269 50.265,-58.968 l 0.563,-1.446 64.133,42.113 -0.461,0.985 c -15.45,32.734 -39.258,58.422 -70.762,76.351 -31.484,17.895 -70.567,26.969 -116.168,26.969 -36.356,0 -68.418,-6.418 -95.277,-19.07 C 82.8359,451.414 61.8359,434.324 47.3008,413.297 32.7383,392.227 25.3555,368.668 25.3555,343.258 c 0,-32.211 9.9023,-59.551 29.4375,-81.25 19.5,-21.676 52.227,-37.356 97.273,-46.613 l 110.918,-23.098 c 23.008,-4.859 38.778,-12.641 46.871,-23.117 8.106,-10.508 12.215,-22.227 12.215,-34.825 0,-19.816 -9.144,-36.1011 -27.183,-48.4214 -18.184,-12.4297 -43.758,-18.7305 -76.016,-18.7305 -36.582,0 -68.242,8.0196 -94.09,23.8477 C 98.9063,106.871 79.0078,129.082 65.6367,157.074 L 64.9883,158.426 0,111.598 0.566406,110.621 C 20.9414,75.4336 50.5039,47.8984 88.4375,28.7852 126.328,9.68359 168.344,0 213.324,0 c 36.332,0 68.844,5.94141 96.621,17.6602 27.805,11.7343 49.758,28.8281 65.235,50.8125 15.488,21.9921 23.34,47.8903 23.34,76.9763 0,28.5 -8.813,53.035 -26.192,72.926 -17.355,19.824 -48.07,34.266 -91.273,42.918"
         style="fill:#100f0d;fill-opacity:1;fill-rule:nonzero;stroke:none"
         id="path12" /><path
         d="m 979.117,106.977 -1.32,-1.317 C 967.445,95.3125 955.738,87.0039 943.012,80.9453 930.316,74.8984 914.945,71.8242 897.34,71.8242 c -19.942,0 -36.465,5.5 -49.113,16.336 -12.586,10.789 -18.965,27.5778 -18.965,49.8908 v 269.586 h 168.234 v 66.277 H 829.262 V 605.566 L 752.809,584.539 V 473.914 h -92.434 v -66.277 h 92.434 V 125.086 c 0.605,-29.6758 7.05,-54.0001 19.16,-72.2969 C 784.066,34.4805 800.582,20.9531 821.07,12.5742 841.449,4.22656 863.695,0 887.164,0 c 25.301,0 48.008,3.75781 67.469,11.1758 19.445,7.4101 36.535,17.75 50.767,30.7461 l 0.65,0.5937 -26.222,62.7424 -0.711,1.719"
         style="fill:#100f0d;fill-opacity:1;fill-rule:nonzero;stroke:none"
         id="path14" /><path
         d="m 1535.75,481.305 c -9.6,1.23 -18.53,1.855 -26.51,1.855 -35.78,0 -66.62,-7.207 -91.66,-21.422 -23.93,-13.593 -42.6,-33.941 -55.55,-60.508 l -9.75,72.684 h -62.43 V 9.24219 h 76.44 V 260.066 c 0,34.11 6.48,62.668 19.25,84.879 12.77,22.188 28.94,38.985 48.06,49.918 19.14,10.926 38.37,16.469 57.16,16.469 14.62,0 26.06,-0.613 34,-1.828 7.9,-1.234 15.29,-3.078 21.95,-5.492 l 1.38,-0.496 13.22,68.914 0.17,0.894 -0.8,0.442 c -6.87,3.738 -15.26,6.273 -24.93,7.539"
         style="fill:#100f0d;fill-opacity:1;fill-rule:nonzero;stroke:none"
         id="path16" /><path
         d="m 2108.82,181.5 c 0,-19.434 -3.68,-36.504 -10.95,-50.738 -7.29,-14.25 -17.43,-26.231 -30.14,-35.6097 -12.73,-9.4062 -27.36,-16.4921 -43.51,-21.0664 -16.16,-4.5664 -33.3,-6.8828 -50.95,-6.8828 -27.32,0 -48.68,5.9688 -63.47,17.7539 -14.72,11.7032 -22.18,27.078 -22.18,45.703 0,19.203 7.3,34.418 21.69,45.215 14.57,10.926 37.11,19.559 66.98,25.656 l 132.53,27.168 z M 2219.15,68.1289 c -22.8,0 -33.88,10.4727 -33.88,32.0271 v 223.692 c 0,36.433 -8.01,66.683 -23.79,89.902 -15.76,23.184 -37.56,40.754 -64.79,52.211 -27.16,11.41 -57.81,17.199 -91.07,17.199 -49.31,0 -91.21,-10.797 -124.54,-32.086 -33.37,-21.324 -56.55,-49.683 -68.91,-84.289 l -0.33,-0.949 62.28,-38.328 0.49,1.484 c 10.35,30.391 26.65,52.719 48.48,66.356 21.89,13.675 49.02,20.609 80.67,20.609 33.39,0 59.53,-9.359 77.69,-27.816 18.16,-18.485 27.37,-45.09 27.37,-79.082 v -16.676 l -167.21,-32.942 c -41.34,-8.019 -74.06,-23.527 -97.24,-46.086 -23.25,-22.636 -35.04,-51.707 -35.04,-86.394 0,-27.879 7.08,-51.6094 21.05,-70.5313 13.92,-18.8945 32.92,-33.1875 56.46,-42.4766 C 1910.29,4.69531 1935.94,0 1963.1,0 c 21.55,0 43.76,3.59766 66.01,10.6875 22.21,7.0859 42.57,18.3633 60.51,33.5117 7.9,6.6797 14.83,14.2813 20.73,22.7578 2.03,-8.2968 4.97,-15.7851 8.81,-22.4257 8.09,-14.0274 19.47,-24.6211 33.81,-31.4688 14.28,-6.82812 30.64,-10.28906 48.61,-10.28906 19.79,0 36.15,3.15234 48.62,9.37496 l 0.64,0.3204 3.86,60.7031 -1.69,-0.4688 c -10.9,-3.0351 -22.28,-4.5742 -33.86,-4.5742"
         style="fill:#100f0d;fill-opacity:1;fill-rule:nonzero;stroke:none"
         id="path18" /><path
         d="m 2871.4,221.246 c 0,-26.824 -3.86,-50.305 -11.46,-69.797 -7.62,-19.48 -18.1,-35.66 -31.14,-48.082 -13.06,-12.4607 -27.99,-21.6912 -44.38,-27.4529 -16.41,-5.7813 -33.37,-8.711 -50.42,-8.711 -36.5,0 -65.15,8.7617 -85.15,26.043 -19.95,17.2269 -30.07,49.4099 -30.07,95.6449 v 285.023 h -76.45 V 169.48 c 0,-40.121 8.31,-73.1636 24.71,-98.2027 16.37,-25.0507 38.02,-43.4023 64.33,-54.5429 C 2657.59,5.62891 2685.9,0 2715.51,0 c 36.95,0 69.62,6.41406 97.12,19.0625 26.35,12.1367 47.75,31.4922 63.65,57.5781 l 4.44,-67.39841 h 67.13 V 473.914 H 2871.4 V 221.246"
         style="fill:#100f0d;fill-opacity:1;fill-rule:nonzero;stroke:none"
         id="path20" /><path
         d="m 3925.52,464.559 c -26.85,12.339 -55.48,18.601 -85.09,18.601 -19.15,0 -39.63,-3.289 -60.9,-9.762 -21.3,-6.48 -41.18,-16.496 -59.09,-29.765 -17.3,-12.832 -31.04,-29.473 -40.87,-49.492 -15.43,29.785 -37.61,52.214 -65.96,66.699 -29.02,14.808 -60.3,22.32 -93,22.32 -28.41,0 -56.43,-6.574 -83.28,-19.531 -25.8,-12.461 -47.19,-32.297 -63.62,-58.992 l -4.37,68.105 -0.08,1.172 h -67.13 V 9.24219 h 76.45 V 257.297 c 0,37.797 7.09,68.68 21.08,91.781 13.98,23.094 31.69,40.199 52.65,50.84 21,10.645 41.8,16.039 61.83,16.039 30.35,0 56.19,-9.223 76.81,-27.418 20.58,-18.168 31.01,-48.328 31.01,-89.648 V 9.24219 h 76.44 V 263.766 c 0,32.898 6.33,60.996 18.8,83.507 12.44,22.481 29.23,39.735 49.88,51.282 20.69,11.547 43.19,17.402 66.88,17.402 30.35,0 56.19,-9.223 76.82,-27.418 20.57,-18.168 31,-48.328 31,-89.648 V 9.24219 h 76.45 V 306.285 c 0,40.723 -8.78,74.543 -26.1,100.52 -17.28,25.945 -39.69,45.371 -66.61,57.754"
         style="fill:#100f0d;fill-opacity:1;fill-rule:nonzero;stroke:none"
         id="path22" /><path
         d="m 4413.67,287.195 c 2.95,17.907 7.75,34.157 14.38,48.606 11.87,25.855 28.81,45.887 50.38,59.551 21.56,13.671 47.61,20.605 77.43,20.605 38.91,0 70.81,-12.008 94.8,-35.687 22.37,-22.102 34.46,-53.379 35.97,-93.075 z m 325.41,92.215 c -16.08,31.817 -39.72,57.328 -70.27,75.84 -30.54,18.52 -67.93,27.91 -111.1,27.91 -42.53,0 -80.99,-9.699 -114.32,-28.82 -33.34,-19.145 -59.93,-47.149 -79.05,-83.227 -19.11,-36.066 -28.8,-79.644 -28.8,-129.531 0,-49.887 9.69,-93.473 28.8,-129.535 19.13,-36.1056 46.2,-64.1095 80.46,-83.2345 C 4479.02,9.69141 4518.56,0 4562.34,0 c 30.18,0 57.84,4.22266 82.2,12.5469 24.37,8.3281 45.97,20.3789 64.19,35.8164 18.21,15.4258 33.38,33.8906 45.11,54.8787 l 0.6,1.071 -60.37,35.453 -0.64,-1.086 c -12.77,-21.899 -29.88,-39.4769 -50.87,-52.2464 -20.96,-12.7617 -48.58,-19.2305 -82.08,-19.2305 -31.04,0 -58.03,6.9336 -80.22,20.6133 -22.17,13.6636 -39.58,33.8476 -51.75,60.0036 -9.58,20.578 -15.45,44.469 -17.52,71.25 h 348.35 l 0.19,1.028 c 1.22,6.726 2.15,14.55 2.79,23.242 0.61,8.797 0.93,18.465 0.93,28.746 0,39.426 -8.14,75.535 -24.17,107.324"
         style="fill:#100f0d;fill-opacity:1;fill-rule:nonzero;stroke:none"
         id="path24" /></g></g></svg>
