<?xml version="1.0" encoding="UTF-8" standalone="no"?>
<!-- Created with Inkscape (http://www.inkscape.org/) -->

<svg
   version="1.1"
   id="svg2"
   xml:space="preserve"
   width="150.36"
   height="208.06667"
   viewBox="0 0 150.36 208.06667"
   sodipodi:docname="Straume_Logo-01.eps"
   xmlns:inkscape="http://www.inkscape.org/namespaces/inkscape"
   xmlns:sodipodi="http://sodipodi.sourceforge.net/DTD/sodipodi-0.dtd"
   xmlns="http://www.w3.org/2000/svg"
   xmlns:svg="http://www.w3.org/2000/svg"><defs
     id="defs6" /><sodipodi:namedview
     id="namedview4"
     pagecolor="#ffffff"
     bordercolor="#666666"
     borderopacity="1.0"
     inkscape:pageshadow="2"
     inkscape:pageopacity="0.0"
     inkscape:pagecheckerboard="0" /><g
     id="g8"
     inkscape:groupmode="layer"
     inkscape:label="ink_ext_XXXXXX"
     transform="matrix(1.3333333,0,0,-1.3333333,0,208.06667)"><g
       id="g10"
       transform="scale(0.1)"><path
         d="m 1127.55,924.379 -289.995,0.059 0.004,25.898 c 0,194.484 -107.465,320.174 -273.782,320.174 C 397.465,1270.51 290,1144.82 290,950.305 V 924.406 H 0 v 25.899 c 0,353.575 237.105,610.205 563.777,610.205 326.676,0 563.783,-256.63 563.783,-610.205 l -0.01,-25.926"
         style="fill:#100f0d;fill-opacity:1;fill-rule:nonzero;stroke:none"
         id="path12" /><path
         d="m 1127.68,0 h -290 v 273.219 c 0,194.531 -107.465,320.222 -273.778,320.222 -166.312,0 -273.781,-125.691 -273.781,-320.222 L 290.121,0 H 0.121094 v 273.219 c 0,353.59 237.105906,610.222 563.780906,610.222 326.672,0 563.778,-256.632 563.778,-610.222 L 1127.68,0"
         style="fill:#100f0d;fill-opacity:1;fill-rule:nonzero;stroke:none"
         id="path14" /></g></g></svg>
